mtllib cube.mtl
 
v 0.000000 2.000000 2.000000
v 0.000000 0.000000 2.000000
v 2.000000 0.000000 2.000000
v 2.000000 2.000000 2.000000
v 0.000000 2.000000 0.000000
v 0.000000 0.000000 0.000000
v 2.000000 0.000000 0.000000
v 2.000000 2.000000 0.000000

vn 1.0 0.0 0.0
vn 0.0 1.0 0.0
vn 0.0 0.0 1.0
vn -1.0 0.0 0.0
vn 0.0 -1.0 0.0
vn 0.0 0.0 -1.0

vt 1.0 1.0
vt 1.0 0.0
vt 0.0 0.0
vt 0.0 1.0


v -10 0 10
v 10 0 10
v 10 0 -10
v -10 0 -10

vn 0 1 0

vt 0 0
vt 1 0 
vt 1 1
vt 0 1



g front
usemtl red
f 1/4/3 2/3/3 3/2/3 4/1/3

#f 8/4/6 7/3/6 6/2/6 5/1/6

f 4/4/1 3/3/1 7/2/1 8/1/1

#f 5/4/2 1/3/2 4/2/2 8/1/2

#f 5/4/4 6/3/4 2/2/4 1/1/4

#f 2/4/5 6/3/5 7/2/5 3/1/5

g plane
usemtl yellow
f 9/5/7 10/6/7 11/7/7 12/8/7
